<svg width="6" height="10" viewBox="0 0 6 10" fill="none" xmlns="http://www.w3.org/2000/svg">
<path opacity="0.8" d="M5.78462 5.49506L1.25862 9.79507C1.1169 9.92679 0.930594 10 0.737118 10C0.543641 10 0.357332 9.92679 0.215618 9.79507C0.147595 9.7318 0.0933419 9.65519 0.0562439 9.57002C0.0191458 9.48486 -2.65346e-08 9.39296 -3.05952e-08 9.30006C-3.46558e-08 9.20717 0.0191458 9.11527 0.0562439 9.03011C0.0933419 8.94494 0.147595 8.86833 0.215618 8.80506L4.21562 5.00006L0.215618 1.19506C0.147595 1.13179 0.0933415 1.05519 0.0562435 0.970024C0.0191455 0.884857 -4.02452e-07 0.792961 -4.06513e-07 0.700066C-4.10574e-07 0.60717 0.0191455 0.515266 0.0562435 0.430099C0.0933415 0.344933 0.147595 0.268329 0.215618 0.205063C0.357276 0.0736284 0.543377 0.000595069 0.736618 0.000595061C0.929858 0.000595052 1.11596 0.0736284 1.25762 0.205063L5.78362 4.50507C5.85164 4.56833 5.90589 4.64494 5.94299 4.7301C5.98009 4.81527 5.99924 4.90716 5.99924 5.00006C5.99924 5.09296 5.98009 5.18486 5.94299 5.27003C5.90589 5.35519 5.85264 5.4318 5.78462 5.49506Z" fill="#094067"/>
</svg>
