<svg width="6" height="10" viewBox="0 0 6 10" fill="none" xmlns="http://www.w3.org/2000/svg">
<path opacity="0.8" d="M0.215382 4.50494L4.74138 0.204933C4.8831 0.0732126 5.06941 1.10972e-08 5.26288 8.79004e-09C5.45636 6.48286e-09 5.64267 0.0732126 5.78438 0.204933C5.8524 0.268199 5.90666 0.344811 5.94376 0.429977C5.98085 0.515144 6 0.60704 6 0.699936C6 0.792832 5.98085 0.884728 5.94376 0.969894C5.90666 1.05506 5.8524 1.13167 5.78438 1.19494L1.78438 4.99994L5.78438 8.80494C5.8524 8.86821 5.90666 8.94481 5.94376 9.02998C5.98085 9.11514 6 9.20704 6 9.29993C6 9.39283 5.98085 9.48473 5.94376 9.5699C5.90666 9.65507 5.8524 9.73167 5.78438 9.79494C5.64272 9.92637 5.45662 9.9994 5.26338 9.9994C5.07014 9.9994 4.88404 9.92637 4.74238 9.79494L0.216381 5.49493C0.148358 5.43167 0.0941067 5.35506 0.0570088 5.2699C0.0199109 5.18473 0.000763 5.09284 0.000762999 4.99994C0.000762998 4.90704 0.0199109 4.81514 0.0570088 4.72997C0.0941067 4.64481 0.147359 4.5682 0.215382 4.50494Z" fill="#094067"/>
</svg>
