<svg width="11" height="6" viewBox="0 0 11 6" fill="none" xmlns="http://www.w3.org/2000/svg">
<path d="M5.50005 5.78462L1.20005 1.25862C1.06833 1.1169 0.995117 0.930594 0.995117 0.737118C0.995117 0.543641 1.06833 0.357332 1.20005 0.215618C1.26332 0.147595 1.33993 0.0933419 1.42509 0.0562439C1.51026 0.0191459 1.60216 0 1.69505 0C1.78795 0 1.87984 0.0191459 1.96501 0.0562439C2.05018 0.0933419 2.12679 0.147595 2.19006 0.215618L5.99506 4.21562L9.80006 0.215618C9.86332 0.147595 9.93993 0.0933419 10.0251 0.0562439C10.1103 0.0191459 10.2022 0 10.2951 0C10.3879 0 10.4799 0.0191459 10.565 0.0562439C10.6502 0.0933419 10.7268 0.147595 10.7901 0.215618C10.9215 0.357277 10.9945 0.543377 10.9945 0.736618C10.9945 0.929859 10.9215 1.11596 10.7901 1.25762L6.49005 5.78362C6.42679 5.85164 6.35018 5.90589 6.26501 5.94299C6.17985 5.98009 6.08795 5.99924 5.99506 5.99924C5.90216 5.99924 5.81026 5.98009 5.72509 5.94299C5.63992 5.90589 5.56332 5.85164 5.50005 5.78362V5.78462Z" fill="#FFFFFE"/>
</svg>
