<svg width="98" height="98" viewBox="0 0 98 98" fill="none" xmlns="http://www.w3.org/2000/svg">
<g filter="url(#filter0_d_5557_427)">
<circle cx="49" cy="45" r="13" transform="rotate(90 49 45)" fill="white"/>
</g>
<path opacity="0.8" d="M46.2154 44.5049L50.7414 40.2049C50.8831 40.0732 51.0694 40 51.2629 40C51.4564 40 51.6427 40.0732 51.7844 40.2049C51.8524 40.2682 51.9067 40.3448 51.9438 40.43C51.9809 40.5151 52 40.607 52 40.6999C52 40.7928 51.9809 40.8847 51.9438 40.9699C51.9067 41.0551 51.8524 41.1317 51.7844 41.1949L47.7844 44.9999L51.7844 48.8049C51.8524 48.8682 51.9067 48.9448 51.9438 49.03C51.9809 49.1151 52 49.207 52 49.2999C52 49.3928 51.9809 49.4847 51.9438 49.5699C51.9067 49.6551 51.8524 49.7317 51.7844 49.7949C51.6427 49.9264 51.4566 49.9994 51.2634 49.9994C51.0701 49.9994 50.884 49.9264 50.7424 49.7949L46.2164 45.4949C46.1484 45.4317 46.0941 45.3551 46.057 45.2699C46.0199 45.1847 46.0008 45.0928 46.0008 44.9999C46.0008 44.907 46.0199 44.8151 46.057 44.73C46.0941 44.6448 46.1474 44.5682 46.2154 44.5049Z" fill="#094067"/>
<defs>
<filter id="filter0_d_5557_427" x="0" y="0" width="98" height="98" filterUnits="userSpaceOnUse" color-interpolation-filters="sRGB">
<feFlood flood-opacity="0" result="BackgroundImageFix"/>
<feColorMatrix in="SourceAlpha" type="matrix" values="0 0 0 0 0 0 0 0 0 0 0 0 0 0 0 0 0 0 127 0" result="hardAlpha"/>
<feOffset dy="4"/>
<feGaussianBlur stdDeviation="18"/>
<feColorMatrix type="matrix" values="0 0 0 0 0 0 0 0 0 0 0 0 0 0 0 0 0 0 0.25 0"/>
<feBlend mode="normal" in2="BackgroundImageFix" result="effect1_dropShadow_5557_427"/>
<feBlend mode="normal" in="SourceGraphic" in2="effect1_dropShadow_5557_427" result="shape"/>
</filter>
</defs>
</svg>
