<svg width="98" height="98" viewBox="0 0 98 98" fill="none" xmlns="http://www.w3.org/2000/svg">
<g filter="url(#filter0_d_5557_930)">
<circle cx="49" cy="45" r="13" transform="rotate(-90 49 45)" fill="white"/>
</g>
<path opacity="0.8" d="M51.7846 45.4951L47.2586 49.7951C47.1169 49.9268 46.9306 50 46.7371 50C46.5436 50 46.3573 49.9268 46.2156 49.7951C46.1476 49.7318 46.0933 49.6552 46.0562 49.57C46.0191 49.4849 46 49.393 46 49.3001C46 49.2072 46.0191 49.1153 46.0562 49.0301C46.0933 48.9449 46.1476 48.8683 46.2156 48.8051L50.2156 45.0001L46.2156 41.1951C46.1476 41.1318 46.0933 41.0552 46.0562 40.97C46.0191 40.8849 46 40.793 46 40.7001C46 40.6072 46.0191 40.5153 46.0562 40.4301C46.0933 40.3449 46.1476 40.2683 46.2156 40.2051C46.3573 40.0736 46.5434 40.0006 46.7366 40.0006C46.9299 40.0006 47.116 40.0736 47.2576 40.2051L51.7836 44.5051C51.8516 44.5683 51.9059 44.6449 51.943 44.7301C51.9801 44.8153 51.9992 44.9072 51.9992 45.0001C51.9992 45.093 51.9801 45.1849 51.943 45.27C51.9059 45.3552 51.8526 45.4318 51.7846 45.4951Z" fill="#094067"/>
<defs>
<filter id="filter0_d_5557_930" x="0" y="0" width="98" height="98" filterUnits="userSpaceOnUse" color-interpolation-filters="sRGB">
<feFlood flood-opacity="0" result="BackgroundImageFix"/>
<feColorMatrix in="SourceAlpha" type="matrix" values="0 0 0 0 0 0 0 0 0 0 0 0 0 0 0 0 0 0 127 0" result="hardAlpha"/>
<feOffset dy="4"/>
<feGaussianBlur stdDeviation="18"/>
<feColorMatrix type="matrix" values="0 0 0 0 0 0 0 0 0 0 0 0 0 0 0 0 0 0 0.25 0"/>
<feBlend mode="normal" in2="BackgroundImageFix" result="effect1_dropShadow_5557_930"/>
<feBlend mode="normal" in="SourceGraphic" in2="effect1_dropShadow_5557_930" result="shape"/>
</filter>
</defs>
</svg>
